<?xml version="1.0" encoding="iso-8859-1"?>
<!-- Generator: Adobe Illustrator 19.0.0, SVG Export Plug-In . SVG Version: 6.00 Build 0)  -->
<svg version="1.1" id="Capa_1" xmlns="http://www.w3.org/2000/svg" xmlns:xlink="http://www.w3.org/1999/xlink" x="0px" y="0px"
	 viewBox="0 0 391.701 391.701" style="enable-background:new 0 0 391.701 391.701;" xml:space="preserve">
<g>
	<g>
		<path d="M325.911,58.461h-80.52v9.8h61.48c15.464,0,28,12.536,28,28v257.6c0,15.464-12.536,28-28,28h-222
			c-15.464,0-28-12.536-28-28V96.181c0-15.464,12.536-28,28-28h61.48v-9.72h-80.56c-11.213,0.022-20.298,9.107-20.32,20.32v292.48
			c-0.044,11.244,9.035,20.396,20.28,20.44c0.013,0,0.027,0,0.04,0h260c5.454-0.006,10.675-2.212,14.48-6.12
			c3.809-3.793,5.954-8.945,5.96-14.32V78.781C346.209,67.568,337.124,58.483,325.911,58.461z"/>
	</g>
</g>
<g>
	<g>
		<path d="M218.591,37.421c-3.159-0.008-5.713-2.576-5.705-5.735c0.002-0.899,0.216-1.784,0.625-2.585
			c0.734-1.408,1.298-2.899,1.68-4.44c2.572-10.742-4.052-21.535-14.794-24.107c-10.742-2.572-21.535,4.052-24.107,14.794
			c-1.07,4.469-0.568,9.17,1.421,13.313c1.613,2.716,0.718,6.226-1.999,7.838c-0.884,0.525-1.893,0.802-2.921,0.801l0.2,0.12h-15.2
			v49.84h76v-49.84H218.591z M195.871,29.861c-5.81,0-10.52-4.71-10.52-10.52c0-5.81,4.71-10.52,10.52-10.52s10.52,4.71,10.52,10.52
			C206.391,25.151,201.681,29.861,195.871,29.861z"/>
	</g>
</g>
<g>
	<g>
		<path d="M306.871,79.701h-61.48v8c0,5.987-4.853,10.84-10.84,10.84h-77.36c-5.987,0-10.84-4.853-10.84-10.84v-8h-61.48
			c-9.083,0.044-16.436,7.397-16.48,16.48v257.6c0.044,9.083,7.397,16.436,16.48,16.48h222c9.083-0.044,16.436-7.397,16.48-16.48
			v-257.6C323.307,87.098,315.954,79.745,306.871,79.701z M93.391,166.221h102.48c3.159,0,5.72,2.561,5.72,5.72
			s-2.561,5.72-5.72,5.72H93.391c-3.159,0-5.72-2.561-5.72-5.72S90.232,166.221,93.391,166.221z M298.351,283.701H93.391
			c-3.159,0-5.72-2.561-5.72-5.72s2.561-5.72,5.72-5.72h204.96c3.159,0,5.72,2.561,5.72,5.72S301.51,283.701,298.351,283.701z
			 M87.671,242.701c0-3.159,2.561-5.72,5.72-5.72h102.48c3.159,0,5.72,2.561,5.72,5.72s-2.561,5.72-5.72,5.72H93.391
			C90.232,248.421,87.671,245.86,87.671,242.701z M298.351,213.021H93.391c-3.159,0-5.72-2.561-5.72-5.72s2.561-5.72,5.72-5.72
			h204.96c3.159,0,5.72,2.561,5.72,5.72S301.51,213.021,298.351,213.021z"/>
	</g>
</g>
<g>
</g>
<g>
</g>
<g>
</g>
<g>
</g>
<g>
</g>
<g>
</g>
<g>
</g>
<g>
</g>
<g>
</g>
<g>
</g>
<g>
</g>
<g>
</g>
<g>
</g>
<g>
</g>
<g>
</g>
</svg>
