<svg height="511pt" viewBox="0 0 511.99957 511" width="511pt" xmlns="http://www.w3.org/2000/svg"><path d="m43.292969 157.410156h425.414062v346.171875h-425.414062zm0 0" fill="#e6e6e6"/><path d="m443.359375 304.125v-145.679688h-164.769531v145.679688h-25.144532v199.457031h225.597657v-199.457031zm0 0" fill="#ccc"/><path d="m43.292969 157.410156h425.414062v47.519532h-425.414062zm0 0" fill="#ccc"/><path d="m468.410156 8.101562h-424.828125l-35.980469 170.464844h496.792969zm0 0" fill="#2c92bf"/><path d="m82.277344 230.0625h147.507812v273.519531h-147.507812zm0 0" fill="#2c92bf"/><path d="m278.792969 304.125h225.597656v199.457031h-225.597656zm0 0" fill="#ff8e1d"/><path d="m431.132812 399.425781-39.539062-22.304687-39.542969 22.304687v-95.300781h79.082031zm0 0" fill="#ff491f"/><path d="m303.9375 158.445312h164.769531v145.675782h-164.769531zm0 0" fill="#ff8e1d"/><path d="m415.203125 228.050781-28.878906-16.289062-28.882813 16.289062v-69.605469h57.761719zm0 0" fill="#ff491f"/><path d="m115.984375 264.878906h80.09375v106.457032h-80.09375zm0 0" fill="#c4e2f2"/><path d="m504.394531 296.519531h-28.082031v-110.351562h28.082031c2.292969 0 4.464844-1.035157 5.90625-2.8125 1.445313-1.78125 2.007813-4.117188 1.535157-6.363281l-35.980469-170.457032c-.742188-3.519531-3.847657-6.035156-7.441407-6.035156h-358.410156c-4.199218 0-7.605468 3.40625-7.605468 7.605469s3.40625 7.601562 7.605468 7.601562h352.242188l32.773437 155.253907h-18.707031v-12.515626c0-4.199218-3.40625-7.605468-7.605469-7.605468h-164.769531c-4.199219 0-7.605469 3.40625-7.605469 7.605468v12.515626h-279.351562l32.773437-155.253907h34.902344c4.199219 0 7.605469-3.402343 7.605469-7.601562s-3.40625-7.605469-7.605469-7.605469h-41.070312c-3.59375 0-6.699219 2.515625-7.441407 6.035156l-35.980469 170.457032c-.472656 2.246093.089844 4.582031 1.535157 6.363281 1.441406 1.777343 3.613281 2.8125 5.90625 2.8125h28.082031v317.421875c0 4.199218 3.40625 7.601562 7.605469 7.601562l461.101562-.003906c4.199219 0 7.601563-3.40625 7.601563-7.605469v-119.066406c0-4.199219-3.402344-7.605469-7.601563-7.605469s-7.605469 3.40625-7.605469 7.605469v111.460937h-210.390624v-184.25h58.050781v87.699219c0 2.703125 1.433593 5.203125 3.769531 6.566407 2.332031 1.363281 5.21875 1.386718 7.570312.058593l35.804688-20.199219 35.804688 20.199219c1.160156.65625 2.449218.980469 3.734374.980469 1.328126 0 2.652344-.347656 3.835938-1.035156 2.332031-1.363282 3.769531-3.867188 3.769531-6.566406v-87.699219h58.050781v47.4375c0 4.199219 3.40625 7.605469 7.605469 7.605469s7.601563-3.40625 7.601563-7.605469v-55.042969c0-4.199219-3.402344-7.605469-7.601563-7.605469zm-96.796875-130.46875v48.980469l-17.539062-9.894531c-1.160156-.652344-2.449219-.980469-3.734375-.980469-1.289063 0-2.578125.328125-3.738281.980469l-17.539063 9.894531v-48.980469zm-317.71875 329.925781v-258.308593h132.300782v258.308593zm188.914063-199.457031c-4.199219 0-7.605469 3.40625-7.605469 7.605469v191.859375h-33.796875v-265.921875c0-4.199219-3.40625-7.605469-7.605469-7.605469h-147.511718c-4.199219 0-7.601563 3.40625-7.601563 7.605469v265.921875h-23.777344v-309.804687h245.4375v110.339843zm32.746093-130.46875h38.300782v62c0 2.703125 1.433594 5.203125 3.769531 6.566407 2.332031 1.363281 5.214844 1.386718 7.570313.058593l25.140624-14.183593 25.144532 14.183593c1.160156.65625 2.449218.980469 3.734375.980469 1.328125 0 2.652343-.347656 3.835937-1.035156 2.332032-1.363282 3.769532-3.867188 3.769532-6.566406v-62.003907h38.300781v130.46875h-149.566407zm111.988282 220.355469-28.199219-15.90625c-1.160156-.65625-2.449219-.980469-3.734375-.980469-1.289062 0-2.578125.324219-3.738281.980469l-28.199219 15.90625v-74.679688h63.871094zm0 0"/><path d="m196.078125 257.277344h-80.09375c-4.203125 0-7.605469 3.402344-7.605469 7.601562v53.21875.011719.007813 53.21875c0 4.199218 3.402344 7.605468 7.605469 7.605468h80.09375c4.199219 0 7.601563-3.40625 7.601563-7.605468v-106.457032c0-4.199218-3.402344-7.601562-7.601563-7.601562zm-7.605469 53.226562h-24.839844v-38.019531h24.839844zm-40.046875-38.019531v38.019531h-24.839843v-38.019531zm-24.839843 53.226563h24.839843v38.019531h-24.839843zm40.046874 38.019531v-38.019531h24.839844v38.019531zm0 0"/><path d="m196.078125 391.105469h-14.089844c-4.199219 0-7.605469 3.40625-7.605469 7.605469 0 4.199218 3.40625 7.601562 7.605469 7.601562h14.089844c4.199219 0 7.601563-3.402344 7.601563-7.601562 0-4.199219-3.402344-7.605469-7.601563-7.605469zm0 0"/><path d="m48.660156 120.910156c0 4.203125 3.40625 7.605469 7.605469 7.605469h399.460937c4.199219 0 7.605469-3.402344 7.605469-7.605469 0-4.199218-3.40625-7.601562-7.605469-7.601562h-399.460937c-4.199219 0-7.605469 3.402344-7.605469 7.601562zm0 0"/><path d="m426.328125 59.371094h-340.664063c-4.199218 0-7.601562 3.402344-7.601562 7.605468 0 4.199219 3.402344 7.601563 7.601562 7.601563h340.664063c4.199219 0 7.605469-3.402344 7.605469-7.601563 0-4.203124-3.40625-7.605468-7.605469-7.605468zm0 0"/></svg>