<svg width="151" height="260" viewBox="0 0 151 260" version="1.1" xmlns="http://www.w3.org/2000/svg" xmlns:xlink="http://www.w3.org/1999/xlink">
<g id="Canvas" fill="none">
<g id="Group 2">
<g id="Vector">
<path d="M 16.118 0C 14.3661 0 12.8477 0.584235 11.6798 1.51901C 10.395 0.584235 8.87663 0 7.24147 0C 3.27036 0 1.42575e-05 3.27169 1.42575e-05 7.24447C 1.42575e-05 14.9563 10.1614 17.0596 11.7965 17.7606C 13.4317 17.0596 23.5931 13.7879 23.5931 7.24447C 23.3595 3.27169 20.0892 0 16.118 0Z" transform="translate(72.8818 0)" fill="#FF0069"/>
</g>
<g id="Group">
<g id="Vector_2">
<path d="M 19.8556 39.7278C 30.8215 39.7278 39.7111 30.8344 39.7111 19.8639C 39.7111 8.89336 30.8215 3.56587e-06 19.8556 3.56587e-06C 8.88964 3.56587e-06 0 8.89336 0 19.8639C 0 30.8344 8.88964 39.7278 19.8556 39.7278Z" transform="translate(32.9375 15)" fill="url(#paint0_linear)"/>
</g>
<g id="Group_2">
<g id="Vector_3">
<path d="M 0.700799 0.983172C 1.63518 2.85271 3.3871 4.25487 5.25586 4.95595C 7.12462 5.77387 9.22703 6.00756 11.4462 6.00756C 13.5485 6.00756 15.6508 5.65702 17.5196 4.72225C 19.2715 3.78748 20.7899 2.15163 21.6075 0.165242C 21.6075 0.0483958 21.8412 -0.0684488 21.9579 0.0483975C 22.0747 0.0483975 22.1915 0.165249 22.0747 0.282096C 21.9579 2.73587 20.4395 4.95595 18.3372 6.3581C 16.2348 7.76026 13.7821 8.22765 11.4462 8.22765C 9.11023 8.22765 6.65748 7.87711 4.43833 6.70864C 2.33598 5.54018 0.467161 3.55379 -2.8515e-05 1.10002C -2.8515e-05 0.866324 0.116826 0.632629 0.350421 0.632629C 0.350421 0.749475 0.584001 0.749479 0.700799 0.983172Z" transform="translate(41.8135 36.9187)" fill="#E29721"/>
</g>
</g>
<g id="Vector_4">
<path d="M 3.03676 3.15485C 3.03676 3.97278 2.33592 4.67385 1.51834 4.67385C 0.700756 4.67385 -1.42575e-05 3.97278 -1.42575e-05 3.15485L -1.42575e-05 1.519C -1.42575e-05 0.701078 0.700756 -3.56587e-06 1.51834 -3.56587e-06C 2.33592 -3.56587e-06 3.03676 0.701078 3.03676 1.519L 3.03676 3.15485Z" transform="translate(46.1348 28.9047)" fill="#E29721"/>
</g>
<g id="Vector_5">
<path d="M 3.03673 3.15485C 3.03673 3.97278 2.33596 4.67385 1.51838 4.67385C 0.700799 4.67385 2.8515e-05 3.97278 2.8515e-05 3.15485L 2.8515e-05 1.519C 2.8515e-05 0.701078 0.700799 -3.56587e-06 1.51838 -3.56587e-06C 2.33596 -3.56587e-06 3.03673 0.701078 3.03673 1.519L 3.03673 3.15485Z" transform="translate(56.7646 28.9047)" fill="#E29721"/>
</g>
</g>
<g id="Group_3">
<g id="Vector_6">
<path d="M 53.1428 17.0596C 82.4928 17.0596 106.286 13.2406 106.286 8.52977C 106.286 3.81891 82.4928 7.13173e-06 53.1428 7.13173e-06C 23.7928 7.13173e-06 -1.42575e-05 3.81891 -1.42575e-05 8.52977C -1.42575e-05 13.2406 23.7928 17.0596 53.1428 17.0596Z" transform="translate(0 242.494)" fill="url(#paint1_linear)"/>
</g>
<g id="Vector_7">
<path d="M 2.8515e-05 3.56587e-06C 2.8515e-05 3.56587e-06 17.8701 26.4073 34.9225 34.5865L 33.0536 38.793C 33.0536 38.793 18.1036 34.8202 6.42389 22.4345C 6.42389 22.3176 4.43833 7.01078 2.8515e-05 3.56587e-06Z" transform="translate(90.0508 111.86)" fill="#D61859"/>
</g>
<g id="Vector_8">
<path d="M 2.8515e-05 3.56587e-06C 2.8515e-05 3.56587e-06 17.8701 26.4073 34.9225 34.5865L 33.0536 38.793C 33.0536 38.793 18.1036 34.8202 6.42389 22.4345C 6.42389 22.3176 4.43833 7.01078 2.8515e-05 3.56587e-06Z" transform="translate(90.0508 111.86)" fill="url(#paint2_linear)"/>
</g>
<g id="Vector_9">
<path d="M 0.0934858 7.47817C 0.0934858 7.47817 0.210312 -3.56587e-06 8.15254 -3.56587e-06C 13.1748 -3.56587e-06 16.3283 2.22008 16.2115 8.88032C 16.0947 16.9427 28.008 13.4373 28.008 18.6954C 28.008 23.1356 19.8322 27.9263 9.78766 25.0051C -0.724111 21.9671 -0.140109 11.6846 0.0934858 7.47817Z" transform="translate(79.9131 69.0942)" fill="#312D74"/>
</g>
<g id="Vector_10">
<path d="M 12.9689 -7.13173e-06C 12.9689 -7.13173e-06 8.76419 2.10323 6.66184 4.67385C 4.67628 7.24446 1.17238 16.4753 0.121207 21.9671C -0.813172 26.1736 3.85873 26.1736 7.12905 21.3829C 10.633 16.1248 16.8232 4.90755 16.8232 4.90755C 16.8232 4.90755 12.8521 4.08961 12.9689 -7.13173e-06Z" transform="translate(5.95312 228.823)" fill="#652D90"/>
</g>
<g id="Vector_11">
<path d="M 0.583987 -1.42635e-05C 0.583987 -1.42635e-05 0 2.10324 0 7.36133C 0 12.0352 1.40157 13.5542 4.6719 13.9047C 4.6719 13.9047 14.4829 13.9047 20.4396 13.9047C 24.9947 13.9047 23.1259 10.3993 18.3372 8.06241C 15.6509 6.66025 9.11017 3.73908 7.7086 1.98639C 7.7086 2.10323 3.03673 1.75268 0.583987 -1.42635e-05Z" transform="translate(75.5684 234.549)" fill="#652D90"/>
</g>
<g id="Vector_12">
<path d="M 1.81653 7.6512C 1.81653 7.6512 7.6564 6.83326 9.40836 1.34149C 10.8099 -3.09867 14.7812 4.49635 9.52527 9.40389C 9.52527 9.40389 13.9636 10.2218 13.0292 11.8577C 13.0292 11.8577 9.75887 11.7408 6.02135 12.3251C 2.28383 12.9093 0.531755 11.9745 0.0645656 11.8577C -0.402624 11.8577 1.81653 7.6512 1.81653 7.6512Z" transform="translate(123.04 138.678)" fill="#CF9E76"/>
</g>
<g id="Vector_13">
<path d="M 2.91995 5.84231C 4.53259 5.84231 5.83989 4.53446 5.83989 2.92115C 5.83989 1.30784 4.53259 -7.13173e-06 2.91995 -7.13173e-06C 1.30731 -7.13173e-06 1.42575e-05 1.30784 1.42575e-05 2.92115C 1.42575e-05 4.53446 1.30731 5.84231 2.91995 5.84231Z" transform="translate(81.0576 75.1702)" fill="#E6E7E8"/>
</g>
<g id="Vector_14">
<path d="M 66.3699 61.9285C 71.3922 62.3959 75.0129 62.9802 77.5824 63.4475C 76.1808 48.2575 73.4945 34.236 70.6914 27.1083C 65.3187 13.0868 51.1863 16.8259 47.4488 17.8775C 43.7112 18.9291 31.4475 23.603 18.8334 17.8775C 5.05129 11.6846 2.59851 -3.56587e-06 2.59851 -3.56587e-06C -1.72299 3.73908 -1.95657 11.8015 12.1759 23.8367C 23.6221 33.5349 40.9081 33.0675 40.9081 33.0675C 44.412 43.8174 45.8135 53.0482 44.7624 62.6296C 49.2007 61.8117 56.7925 60.9938 66.3699 61.9285Z" transform="translate(21.5791 87.7896)" fill="#FF0069"/>
</g>
<g id="Vector_15">
<path d="M 69.4759 0.46826C 59.8985 -0.583357 52.3066 0.351421 47.8683 1.16934C 46.7004 12.1529 42.1453 23.6038 33.9695 38.3265C 20.1874 63.2147 0.214997 79.9238 0.214997 79.9238C -0.952977 84.1302 3.01816 85.065 3.01816 85.065C 3.01816 85.065 13.4131 80.0406 34.3199 59.943C 54.1754 40.8971 63.7528 17.5278 63.7528 17.5278C 63.7528 17.5278 66.5559 28.1608 66.5559 45.5709C 66.5559 62.8642 60.0153 78.4048 58.3801 83.1955C 56.7449 88.103 65.1544 87.5188 65.1544 87.5188C 65.1544 87.5188 74.8486 69.1739 79.7541 44.753C 82.2068 32.7179 82.09 16.8268 80.6884 2.10412C 78.1188 1.51989 74.4982 1.05249 69.4759 0.46826Z" transform="translate(18.4717 149.25)" fill="#BF00C0"/>
</g>
<g id="Vector_16">
<path d="M 28.8117 8.14198C 29.9797 9.07675 29.9797 10.7126 28.9285 11.8811L 11.5257 29.1743C 10.4745 30.2259 8.83933 30.2259 7.78816 29.0575L 0.546772 19.9435C -0.27081 19.0087 -0.15407 17.3728 0.78031 16.4381L 16.548 0.780672C 17.4823 -0.154099 19.1175 -0.270959 20.0519 0.546965L 28.8117 8.14198Z" transform="translate(8.33008 75.7917)" fill="#8D7FFF"/>
</g>
<g id="Vector_17">
<path d="M 8.67591 0.606092C 8.67591 0.606092 5.87283 -1.02975 3.18649 1.07349C 0.500146 3.29357 -0.667857 7.14949 0.38332 8.78533C 1.4345 10.4212 6.80717 8.78534 8.90952 6.21472C 11.9463 2.1251 8.67591 0.606092 8.67591 0.606092Z" transform="translate(12.1143 79.8221)" fill="#CF9E76"/>
</g>
<g id="Vector_18">
<path d="M 6.00623 7.13173e-06C 6.00623 7.13173e-06 5.53904 1.86954 7.1742 3.97277C 8.80937 6.07601 10.7949 5.49176 10.7949 5.49176C 10.7949 5.49176 5.77263 9.23084 3.67028 10.1656C 1.56792 11.1004 -1.00161 7.47816 0.399964 5.14124L 6.00623 7.13173e-06Z" transform="translate(18.4053 223.799)" fill="#CF9E76"/>
</g>
<g id="Vector_19">
<path d="M 2.11964 7.13173e-06C 2.11964 7.13173e-06 3.87165 2.8043 6.90838 3.15484C 9.82832 3.50538 10.2955 2.5706 10.2955 2.5706L 7.60914 8.52977C 7.60914 8.52977 6.32438 10.0488 3.75484 9.58138C 1.18529 9.114 0.0173033 7.01079 0.0173033 7.01079C 0.0173033 7.01079 -0.333103 5.37494 2.11964 7.13173e-06Z" transform="translate(76.1348 228.473)" fill="#CF9E76"/>
</g>
<g id="Vector_20">
<path d="M 24.2242 15.821C 23.6402 22.4813 17.6836 27.3888 11.0261 26.8046C 4.36866 26.2203 -0.536786 20.2612 0.0472016 13.6009L 0.631189 6.9407C 1.21518 0.280459 6.70466 -0.420623 13.4789 0.163609C 20.1364 0.74784 25.509 2.3837 24.925 9.04394L 24.2242 15.821Z" transform="translate(60.2207 71.8517)" fill="#CF9E76"/>
</g>
<g id="Vector_21">
<path d="M 6.90815 6.0835C 6.90815 6.0835 7.14172 9.1215 11.6968 12.1595C 14.0328 13.6785 16.7192 14.6133 19.0551 14.847C 19.8727 14.9638 21.2742 15.548 21.8582 17.7681C 22.3254 19.8714 25.3621 14.3796 26.5301 13.9122C 26.5301 13.9122 28.2821 6.55088 22.7926 2.57811C 17.3031 -1.39467 5.03938 -0.109359 2.00265 1.99387C -1.03409 4.09711 -0.0997087 9.93942 1.41866 12.7437C 1.30186 12.7437 1.65227 7.71934 6.90815 6.0835Z" transform="translate(59.3154 68.7362)" fill="#312D74"/>
</g>
<g id="Vector_22">
<path d="M 2.21912 4.44015C 3.44473 4.44015 4.4383 3.4462 4.4383 2.22008C 4.4383 0.993964 3.44473 7.13173e-06 2.21912 7.13173e-06C 0.993519 7.13173e-06 1.42575e-05 0.993964 1.42575e-05 2.22008C 1.42575e-05 3.4462 0.993519 4.44015 2.21912 4.44015Z" transform="translate(71.7139 85.3358)" fill="#CB8C84"/>
</g>
<g id="Vector_23">
<path d="M 0.438005 4.32332C 1.37238 4.32332 2.18994 3.62223 2.30674 2.45377C 2.42353 1.28531 1.60598 0.116853 0.438005 7.13173e-06C 0.321207 7.13173e-06 0.321222 7.13173e-06 0.0876266 7.13173e-06C 0.0876266 0.116853 -0.26278 1.86954 0.438005 4.32332Z" transform="translate(60.1807 85.3358)" fill="#CB8C84"/>
</g>
<g id="Group_4">
<g id="Vector_24">
<path d="M 0 1.09746C 0 0.746921 0.233623 0.513232 0.467218 0.279539C 0.700813 0.0458465 1.05119 -0.0710141 1.40158 0.0458322C 1.75198 0.162679 2.10238 0.279525 2.21918 0.630064C 2.45277 0.863756 2.45272 1.21431 2.45272 1.448L 2.33595 1.56484C 2.33595 1.56484 2.33598 1.56484 2.21918 1.56484C 1.86879 1.2143 1.63514 0.863771 1.28474 0.863771C 0.934351 0.746924 0.700799 0.980603 0.233609 1.2143C 0.233609 1.33114 0.116797 1.33115 0 1.09746C 0 1.21431 0 1.21431 0 1.09746Z" transform="translate(68.5605 82.7194)" fill="#312D74"/>
</g>
</g>
<g id="Group_5">
<g id="Vector_25">
<path d="M 4.20469 0.438181C 4.20469 0.905566 3.9711 1.37294 3.62071 1.72348C 3.27031 2.07402 2.80315 2.30772 2.33596 2.42456C 1.86877 2.54141 1.2848 2.42457 0.817611 2.19088C 0.350421 1.95718 0.116812 1.4898 1.42575e-05 1.02241C 1.42575e-05 0.905566 -1.42627e-05 0.905552 0.116783 0.788705L 0.233623 0.788705C 0.584016 1.0224 0.934365 1.13925 1.28476 1.13925C 1.63515 1.25609 1.86873 1.25609 2.21912 1.13925C 2.56952 1.13925 2.80317 1.0224 3.15356 0.788705C 3.38715 0.671859 3.73749 0.438177 3.97108 0.0876383C 4.08788 -0.029208 4.20474 -0.029208 4.32153 0.0876383C 4.20474 0.204485 4.20469 0.321335 4.20469 0.438181Z" transform="translate(65.874 89.5715)" fill="#312D74"/>
</g>
</g>
<g id="Vector_26">
<path d="M 1.28474 2.22007C 1.28474 2.57061 0.93438 2.8043 0.583987 2.8043C 0.233595 2.8043 0 2.45378 0 2.10324L 0.116769 0.584232C 0.116769 0.233693 0.467204 0 0.817596 0C 1.16799 0 1.40158 0.350546 1.40158 0.701085L 1.28474 2.22007Z" transform="translate(62.7207 81.7136)" fill="#312D74"/>
</g>
<g id="Vector_27">
<path d="M 1.28477 2.57061C 1.99433 2.57061 2.56952 1.99517 2.56952 1.28531C 2.56952 0.575456 1.99433 -3.56587e-06 1.28477 -3.56587e-06C 0.575212 -3.56587e-06 2.8515e-05 0.575456 2.8515e-05 1.28531C 2.8515e-05 1.99517 0.575212 2.57061 1.28477 2.57061Z" transform="translate(26.3955 81.9473)" fill="#E9F2F7"/>
</g>
<g id="XMLID 1">
<g id="XMLID 2">
<path d="M 0.325603 7.96848L 4.76396 9.60432L 6.51592 15.0961C 6.63272 15.4466 7.09985 15.5635 7.33345 15.3298L 9.78617 13.3434C 10.0198 13.1097 10.3702 13.1097 10.7206 13.3434L 15.1588 16.4982C 15.5092 16.7319 15.8597 16.4983 15.9765 16.1477L 19.2467 0.607155C 19.3635 0.256616 18.8964 -0.0939231 18.546 0.0229233L 0.55914 7.0337C -0.141644 7.15055 -0.141587 7.85163 0.325603 7.96848ZM 6.16547 8.7864L 14.8085 3.52831C 14.9253 3.41147 15.1588 3.64516 15.0421 3.762L 7.91744 10.3054C 7.68384 10.5391 7.45022 10.8896 7.45022 11.2402L 7.21668 12.9929C 7.21668 13.2265 6.86626 13.2265 6.74946 12.9929L 5.81502 9.72117C 5.69823 9.37063 5.81508 8.90324 6.16547 8.7864Z" transform="translate(131.305 87.2993)" fill="#E9F2F7"/>
</g>
</g>
<g id="Vector_28">
<path d="M 3.73907 6.07354C 5.80408 6.07354 7.47805 4.71392 7.47805 3.03676C 7.47805 1.3596 5.80408 3.56442e-06 3.73907 3.56442e-06C 1.67405 3.56442e-06 1.42633e-05 1.3596 1.42633e-05 3.03676C 1.42633e-05 4.71392 1.67405 6.07354 3.73907 6.07354Z" transform="matrix(0.169531 -0.985512 0.985488 0.169669 80.0156 88.8746)" fill="#CF9E76"/>
</g>
<g id="Group_6">
<g id="Vector_29">
<path d="M 1.51837 -3.56587e-06C 1.51837 0.116843 1.51837 0.467389 1.51837 0.701081C 1.51837 0.934774 1.4016 1.16846 1.4016 1.519C 1.2848 1.98639 1.05116 2.57062 0.70077 3.03801C 0.583973 3.2717 0.584001 3.2717 0.584001 3.38855C 0.584001 3.5054 0.817554 3.62223 1.05115 3.73907C 1.40154 3.97277 1.98554 4.08963 2.45273 3.97278C 2.45273 3.97278 2.56957 3.97277 2.56957 4.08962L 2.56957 4.20647C 2.10238 4.44016 1.51837 4.44015 0.93438 4.32331C 0.700785 4.20646 0.350378 4.08961 0.116783 3.73907C -1.42627e-05 3.62223 1.42575e-05 3.27169 1.42575e-05 3.15484C 1.42575e-05 2.92115 0.116826 2.80431 0.233623 2.68747C 0.467218 2.33693 0.700813 1.86954 0.817611 1.519C 1.05121 1.05162 1.05121 0.701074 1.4016 -3.56587e-06C 1.4016 -3.56587e-06 1.40157 -3.56587e-06 1.51837 -3.56587e-06Z" transform="translate(64.7061 84.2842)" fill="#312D74"/>
</g>
</g>
<g id="Vector_30">
<path d="M 1.168 2.33693C 1.81306 2.33693 2.33598 1.81379 2.33598 1.16847C 2.33598 0.523146 1.81306 7.13173e-06 1.168 7.13173e-06C 0.522949 7.13173e-06 2.8515e-05 0.523146 2.8515e-05 1.16847C 2.8515e-05 1.81379 0.522949 2.33693 1.168 2.33693Z" transform="translate(82.459 88.257)" fill="#FEA729"/>
</g>
</g>
</g>
</g>
<defs>

<linearGradient id="paint0_linear" x2="1" gradientUnits="userSpaceOnUse" gradientTransform="matrix(24.1425 31.8376 -31.8243 24.1526 25.6257 -5.64122)">
<stop stop-color="#FFDD15"/>
<stop offset="1" stop-color="#FCB534"/>
</linearGradient>
<linearGradient id="paint1_linear" x2="1" gradientUnits="userSpaceOnUse" gradientTransform="translate(-0.0269802 -44.5921) scale(106.296 106.341)">
<stop stop-color="#E9F2F7" stop-opacity="0"/>
<stop offset="1" stop-color="#E9F2F7"/>
</linearGradient>
<linearGradient id="paint2_linear" x2="1" gradientUnits="userSpaceOnUse" gradientTransform="matrix(27.4183 26.2868 -26.2758 27.4298 0.852562 -17.3499)">
<stop stop-color="#312D74"/>
<stop offset="0.3252" stop-color="#312D74" stop-opacity="0.7152"/>
<stop offset="1" stop-color="#312D74" stop-opacity="0"/>
</linearGradient>

</defs>
</svg>

